<svg xmlns="http://www.w3.org/2000/svg" viewBox="0 0 38 24" width="38" height="24">
  <rect width="38" height="24" rx="4" fill="#fff" stroke="#e0e0e0" stroke-width="1"/>
  <path d="M9.8 8.6c.4-.5.7-1.2.6-1.9-.6 0-1.3.4-1.7.9-.4.4-.7 1.1-.6 1.8.6 0 1.3-.4 1.7-.8zm.6 1c-.9-.1-1.7.5-2.2.5s-1.1-.5-1.9-.5c-1 0-1.9.6-2.4 1.4-1 1.7-.3 4.2.7 5.6.5.7 1 1.4 1.7 1.4.7 0 1-.4 1.8-.4.8 0 1.1.4 1.8.4.7 0 1.2-.7 1.7-1.4.5-.7.7-1.4.7-1.5 0 0-1.5-.6-1.5-2.2 0-1.4 1.1-2.1 1.2-2.1-.7-1-1.7-1.1-2.1-1.1l.5-.1zm5.9-2.1v9.6h1.5V14h2.1c1.9 0 3.2-1.3 3.2-3.2 0-1.9-1.3-3.1-3.2-3.1h-3.6v-.2zm1.5 1.3h1.7c1.3 0 2 .7 2 1.9 0 1.2-.7 1.9-2 1.9h-1.7V8.8zm8 8.1c.9 0 1.8-.5 2.2-1.2h0v1.2h1.4v-5c0-1.4-1.1-2.3-2.8-2.3-1.6 0-2.8.9-2.8 2.1h1.4c.1-.6.7-1 1.4-1 .9 0 1.4.4 1.4 1.2v.5l-1.9.1c-1.7.1-2.7.8-2.7 2.1 0 1.2 1 2.1 2.4 2.1v.2zm.4-1.1c-.8 0-1.3-.4-1.3-1s.5-1 1.4-1l1.7-.1v.5c0 .9-.8 1.6-1.8 1.6zm5 3.6c1.4 0 2.1-.6 2.7-2.2l2.6-7.4h-1.5l-1.7 5.7h0l-1.7-5.7h-1.6l2.5 7h0l-.1.4c-.2.7-.6 1-1.2 1h-.4v1.1c.1 0 .3.1.4.1z" fill="#000"/>
</svg>
