<svg xmlns="http://www.w3.org/2000/svg" viewBox="0 0 38 24" width="38" height="24">
  <rect width="38" height="24" rx="4" fill="#fff" stroke="#e0e0e0" stroke-width="1"/>
  <path d="M18.4 12.3v2.6h-.8V8.7h2.2c.5 0 1 .2 1.4.6.4.4.6.8.6 1.4 0 .5-.2 1-.6 1.4-.4.4-.9.6-1.4.5l-1.4-.3zm0-2.9v2.2h1.4c.3 0 .6-.1.8-.3.2-.2.3-.5.3-.8 0-.3-.1-.6-.3-.8-.2-.2-.5-.3-.8-.3h-1.4zm6.6 1c.6 0 1.1.2 1.4.5.4.3.5.8.5 1.3v2.6h-.8v-.6c-.3.5-.8.7-1.4.7-.5 0-.9-.1-1.2-.4-.3-.3-.5-.6-.5-1.1 0-.5.2-.8.5-1.1.3-.3.8-.4 1.4-.4.5 0 .9.1 1.2.3v-.2c0-.3-.1-.5-.3-.7-.2-.2-.5-.3-.8-.3-.5 0-.8.2-1.1.6l-.7-.5c.4-.6 1-.9 1.8-.9v.2zm-1.1 3.3c0 .2.1.4.3.5.2.1.4.2.6.2.4 0 .7-.1.9-.4.3-.3.4-.6.4-.9-.3-.2-.6-.3-1.1-.3-.3 0-.6.1-.8.2-.2.2-.3.4-.3.7zm6.8-3.2l-2.2 5.1h-.9l.8-1.8-1.8-3.3h.9l1.3 2.9 1.2-2.9h.7z" fill="#3c4043"/>
  <path d="M14.3 12.1c0-.3 0-.5-.1-.8H10v1.4h2.4c-.1.5-.4.9-.8 1.2v1h1.3c.8-.7 1.4-1.8 1.4-2.8z" fill="#4285f4"/>
  <path d="M10 15.8c1.2 0 2.2-.4 2.9-1.1l-1.3-1c-.4.3-.9.5-1.6.5-1.2 0-2.2-.8-2.6-1.9H6v1c.7 1.5 2.2 2.5 4 2.5z" fill="#34a853"/>
  <path d="M7.4 12.3c-.1-.3-.2-.6-.2-1 0-.3.1-.7.2-1V9.3H6c-.4.7-.6 1.5-.6 2.3 0 .8.2 1.6.6 2.3l1.4-1.6z" fill="#fbbc04"/>
  <path d="M10 9.4c.7 0 1.3.2 1.8.7l1.3-1.3c-.8-.8-1.9-1.2-3.1-1.2-1.8 0-3.3 1-4 2.5l1.4 1.1c.4-1.1 1.4-1.8 2.6-1.8z" fill="#ea4335"/>
</svg>
