<svg xmlns="http://www.w3.org/2000/svg" viewBox="0 0 38 24" width="38" height="24">
  <rect width="38" height="24" rx="4" fill="#5A31F4"/>
  <path d="M8.5 9.5c0-.6.5-1 1.1-1 .4 0 .8.2 1 .5l.7-.7c-.4-.5-1-.8-1.7-.8-1.1 0-2 .9-2 2s.9 2 2 2c.7 0 1.3-.3 1.7-.8l-.7-.7c-.2.3-.6.5-1 .5-.6 0-1.1-.4-1.1-1zm4.5-1.5h-1v5h1V11h.8c1 0 1.7-.7 1.7-1.5S14.8 8 13.8 8H13zm.7 2h-.7V9h.7c.4 0 .7.2.7.5s-.3.5-.7.5zm3.8 0c-.6-.1-1-.3-1-.6 0-.3.3-.5.7-.5.4 0 .8.1 1.1.4l.6-.7c-.4-.4-1-.6-1.7-.6-.9 0-1.6.6-1.6 1.4 0 .9.7 1.2 1.5 1.4.6.1.9.3.9.6 0 .3-.3.5-.8.5-.5 0-1-.2-1.3-.6l-.6.7c.5.5 1.1.8 1.9.8 1 0 1.7-.6 1.7-1.5 0-.8-.6-1.2-1.4-1.3zm3.5-2h-1v5h1V12h.4l1.1 1.5H22l-1.2-1.6c.6-.2 1-.7 1-1.4 0-.9-.7-1.5-1.8-1.5zm.1 2h-.1V9h.1c.5 0 .8.2.8.5s-.3.5-.8.5zm3.9 0L27 8h-1.1l-1.5 2.5V8h-1v5h1v-2l.5-.8 1.1 2.8H27l-1.5-3z" fill="white"/>
</svg>
